<?xml version="1.0" encoding="utf-8"?>
<!-- Generator: Adobe Illustrator 21.0.0, SVG Export Plug-In . SVG Version: 6.00 Build 0)  -->
<svg version="1.1" id="Calque_1" xmlns="http://www.w3.org/2000/svg" xmlns:xlink="http://www.w3.org/1999/xlink" x="0px" y="0px"
	 viewBox="0 0 1000 500" style="enable-background:new 0 0 1000 500;" xml:space="preserve">
<path id="path3336_1_" d="M160.8,215.7c-29-18.3-52.9-33.3-53.1-33.5c-0.2-0.2,0-2.8,0.3-5.9c0.3-3.1,0.6-5.8,0.6-5.9
	c0-0.2,6.1-6.6,13.5-14.2c7.4-7.6,27.7-28.7,45.1-46.8l31.6-32.9l2,0.3c1.1,0.1,7.2,0.8,13.6,1.4c13.2,1.3,27.4,1.5,37.1,0.6
	c4.9-0.5,6.8-0.4,15.3,0.3c21.5,1.9,36.4,2.1,49.8,0.9l4.8-0.5l4,1.7c2.2,1,4.4,2.1,4.9,2.6c1.2,1.1,26.9,14.2,33.1,16.8
	c11.4,4.9,17.7,6.6,37.8,10.2c16.8,3,22.7,4.1,30.5,6.1c19.1,4.7,29,10.7,26.9,16.3c-0.4,1.2-0.5,1.2-4,1.2
	c-18.5,0-187.6,1.8-187.9,2c-0.2,0.1-8.2,9.6-17.7,21.1l-17.3,20.9l0.9,24.8l0.9,24.8l-1,1.5c-2.4,3.6-17.7,19.5-18.7,19.4
	C213.8,248.9,189.8,234,160.8,215.7z"/>
<path id="path3364" d="M669.8,422.5c-1.1-0.1-2.3-0.3-2.8-0.5c-0.5-0.2-3-0.9-5.5-1.5c-8.3-2-16.2-6.4-22.7-12.6
	c-21-20-21.9-52.8-2-73.7c4.6-4.8,9.3-8.2,15.1-11.1c19.5-9.5,42.8-5.9,58.5,9.1c16.6,15.8,21.1,40.1,11.1,60.5
	c-6.8,13.9-19.5,24.3-33.8,27.7c-2.6,0.6-5,1.3-5.4,1.5C681.4,422.3,672.6,422.7,669.8,422.5z M684.3,403.3
	c11.5-3.7,20-12.2,23.6-23.8c0.9-2.8,1-4.1,1-9.5s-0.1-6.7-1-9.5c-3.7-11.7-12.1-20.2-23.8-23.8c-2.8-0.9-4.1-1-9.5-1
	s-6.7,0.1-9.5,1c-11.7,3.7-20.2,12.1-23.8,23.8c-0.9,2.8-1,4.1-1,9.5s0.1,6.7,1,9.5c4,12.7,14,21.9,26.9,24.6
	C671.5,404.9,680.9,404.4,684.3,403.3z M670.5,392.1c-10.3-2.2-15.6-9.2-15.5-20.8c0-9.1,3.9-15.9,11.1-19.5
	c7.3-3.6,14.7-3.4,21.2,0.4c2.8,1.6,5.9,4.3,5.6,4.9c-0.1,0.2-2.9,2.7-6.2,5.4c-7.1,6-10,8.8-10,9.5c0,0.3,3.8,3.3,8.4,6.8
	c5.3,4,8.3,6.5,8.2,6.9c-0.2,0.6-4.9,3.7-6.9,4.6C682.3,392.1,674.5,393,670.5,392.1z M481.3,392.1c-1-0.8-1-0.9-1.2-11.1l-0.2-10.3
	h-53.9H372l0-2.2l0-2.2l32.7,0.1c19.1,0.1,32.9,0,33.1-0.3c0.5-0.5-0.5-1.5-7.2-7.7c-2.9-2.6-5.4-5.3-5.7-6.1
	c-0.5-1.1-0.6-8.5-0.6-39.6v-38.2l1.2-1.1l1.2-1.1l41.6-0.1l41.6-0.1l0.6-1.2c0.9-1.7,0.8-2.2-1.1-5.2c-6-9.2-4.7-20.6,3.1-28.7
	l2.9-3v-38.6c0-25.8,0.1-38.9,0.4-39.4c0.6-1.1,2-1.1,2.6,0c0.3,0.5,0.4,4.2,0.4,9c0,7.4,0.1,8.2,0.8,8.9c0.4,0.4,1.1,0.7,1.5,0.7
	c1,0,9.1-4.1,9.8-5c0.5-0.6,0.7-2.9,0.9-10.5c0.3-10.9,0.3-10.7,1.1-11c0.8-0.3,1.7,0.1,1.9,0.7c0.1,0.3,0.2,18.9,0.3,41.5l0.2,40.9
	l1.3,0.7c0.7,0.4,1.4,0.7,1.6,0.7s1.2-1.2,2.2-2.7l1.8-2.7V216c0-10.5,0-11.1,0.9-12c0.8-0.8,1.4-0.9,7.6-0.9c6.1,0,6.8,0.1,7.6,0.9
	c0.8,0.8,0.9,1.4,0.9,12.8s0,11.9-0.9,12.8c-0.8,0.8-1.4,0.9-8.1,0.9c-6.5,0-7.3,0.1-8.6,0.9c-1.8,1.1-1.8,2.2,0,3.4
	c1.8,1.1,4.9,4.5,6.3,6.7c0.6,1,1.2,1.9,1.5,2c0.3,0.2,2.2,0.2,4.4,0.1c13.5-0.9,28,4.4,38.3,14l3.4,3.2l38.2,0l38.2,0l2.5-1.7
	l2.5-1.7h4.9c6,0,6,0,9.5,6.7c2.9,5.5,3.8,6.9,5.1,7.7c0.7,0.4,4.4,0.6,12.2,0.8l11.3,0.2l1.6,1.3c3.6,2.9,3.4,1.8,3.6,19.1
	c0.2,17.5,0,16.1,4.2,20.8c3.6,4,4.2,4.9,5.5,9.1c0.7,2,1.4,3.7,1.6,3.8c0.8,0.3,0.3,2.5-0.7,3.2c-0.9,0.6-2.5,0.9-8.9,1.2
	c-5.3,0.3-8.1,0.3-8.6,0c-0.5-0.2-2.4-2.3-4.3-4.5c-18.2-21.3-49.2-24.9-71.5-8.3c-8.8,6.5-14.5,14.4-18.6,25.8c-1,2.8-2.5,6-3.2,7
	c-4.8,7-13.3,13.2-22.4,16.4c-1.7,0.6-3.8,1.5-4.5,1.9c-1.3,0.7-3.4,0.8-22.5,1l-21.1,0.2l-0.1,10.6c0,5.8-0.2,10.8-0.4,11.1
	c-0.3,0.4-7.5,0.5-33.8,0.5C483.5,392.9,482.3,392.9,481.3,392.1L481.3,392.1z M577.1,365.3c10.2-2.9,19.6-9.1,25.7-16.7
	c2.6-3.3,6.6-9.6,7.7-12.1c7.2-17.3,21.5-30.8,39.1-36.9c7.4-2.6,11.7-3.2,21-3.2c7.1,0,9.1,0.2,12.8,1c12.5,2.7,23.1,8.3,32.5,17.2
	l4.5,4.2l2-1.1c2.9-1.6,3-2.1,1.4-4.1c-0.8-1-1.6-2.4-1.9-3.3c-0.4-1.2-1-1.8-2.9-2.8c-1.3-0.7-7-4.1-12.5-7.7
	c-5.6-3.5-10.9-6.7-11.8-7.1c-1.3-0.6-3.6-0.8-9.5-1c-7.9-0.3-9.7-0.7-9.7-2.1c0-1.2,2.7-1.5,11.3-1.5c8,0,8.8-0.1,12.1-1.1
	c4.9-1.5,5.8-2.4,6.1-6.9c0.1-1.9,0.2-3.6,0-3.7c-0.1-0.2-2.3-0.3-4.7-0.3c-3.1,0-4.9-0.2-5.8-0.6c-1.9-1-3.9-3.6-6.5-8.5
	c-3.2-6.1-3.1-6-6.4-6c-2.5,0-3,0.1-5.2,1.7c-1.4,1-2.9,1.7-3.6,1.7c-2.6,0-2.6-0.2-2.6,8.9c0,7.7-0.1,8.4-0.9,9.4l-0.9,1l-0.9-1
	c-0.7-0.8-0.9-1.6-0.9-3.6c0-2.3-0.1-2.7-1.3-3.8l-1.3-1.3h-29.7c-23.5,0-29.7,0.1-29.9,0.5c-0.4,0.9,2.2,7.4,3.1,7.7
	c0.4,0.2,11.8,0.3,25.2,0.3c15.9,0,24.6,0.2,25.2,0.5c1.1,0.6,1.1,2.3-0.1,3.1c-0.5,0.3-2.5,1-4.4,1.4c-9.1,2-19.9,7-27.6,12.8
	c-11.6,8.7-19.4,19.1-25.9,34.6c-1.6,3.7-7,10.3-11.4,13.8c-4.1,3.2-9.1,5.7-13.9,7l-3.7,1h-59.2h-59.2l-2-1.2
	c-3.4-2-8.1-5.9-9.1-7.6l-1-1.6l-0.2-30.7l-0.2-30.7l0.9-1.2l0.9-1.2h31.1c17.1,0,31.5-0.2,32.1-0.4c1.2-0.5,2.8-4.7,2-5.4
	c-0.3-0.3-13.3-0.4-39.6-0.4c-32.5,0-39.2,0.2-39.5,0.6c-0.2,0.3-0.4,16.7-0.4,36.4c0,29,0.1,36,0.6,37.2
	c0.6,1.5,13.6,13.8,16.3,15.4l1.5,0.9l63.8-0.1l63.8-0.1L577.1,365.3L577.1,365.3z M566.3,329c11.5-3.7,20-12.2,23.6-23.8
	c0.9-2.8,1-4.1,1-9.5s-0.1-6.7-1-9.5c-3.7-11.7-12.1-20.2-23.8-23.8c-2.8-0.9-4.1-1-9.5-1s-6.7,0.1-9.5,1
	c-11.7,3.7-20.2,12.1-23.8,23.8c-0.9,2.8-1,4.1-1,9.5s0.1,6.7,1,9.5c4,12.7,14,21.9,26.9,24.6C553.5,330.5,562.9,330,566.3,329z
	 M550.3,316c-2.9-0.6-6.4-2.1-8.5-3.6c-9.2-6.7-9.6-25.3-0.7-33.3c7.2-6.5,17.9-7.6,26.1-2.8c2.8,1.6,5.9,4.3,5.6,4.9
	c-0.1,0.2-2.9,2.7-6.2,5.4c-7.1,6-10,8.8-10,9.5c0,0.3,3.8,3.3,8.4,6.8c5.3,4,8.3,6.5,8.2,6.9c-0.3,0.8-5.1,3.8-7.8,4.9
	C561.4,316.3,554.8,316.9,550.3,316L550.3,316z M721.6,293.3c0.1-11.2,0-12.7-0.6-14c-1.1-2.3-3.8-3.5-7.7-3.5
	c-4.7,0-4.5-0.4-4.5,6.2c0,3.1-0.2,7.2-0.5,9c-0.4,2.6-0.4,3.6,0.1,4.7c0.6,1.6,11.5,10.5,12.5,10.3
	C721.4,305.8,721.5,304,721.6,293.3z M464.9,296.1l0.2-1.9l5.6-0.2l5.6-0.2v-3.5v-3.5l-5.5-0.1c-5.4-0.1-5.5-0.1-5.9-1.2
	c-0.4-1-0.6-1.1-3.7-1.1c-3.1,0-3.3,0.1-3.7,1.1c-0.4,1.1-0.4,1.1-7.2,1.2l-6.8,0.1v3.5v3.5l6.9,0.2l6.9,0.2l0.1,1.5
	c0.2,2.6,0.2,2.6,3.9,2.5l3.4-0.1L464.9,296.1z M665.5,268.9c1.4-1.4,1.8-4.1,0.6-4.5c-0.4-0.1-15.5-0.3-33.5-0.3
	c-36.5,0-34.2-0.2-32.3,2.9c2.1,3.5-1.4,3.1,33.1,3.1h30.9L665.5,268.9z M514.8,264.4c0.6-0.9,0.7-2.7,0.7-13
	c0-11.4,0-11.9-0.8-11.9c-1.2,0-4.1,4.6-5.2,8.1c-1.6,5.2-0.9,11.1,1.9,15.9C512.7,265.7,513.7,266,514.8,264.4L514.8,264.4z
	 M522.5,256.1c1.2-1.1,3.8-3,5.8-4.3l3.6-2.4v-7.5c0-5.2-0.2-7.6-0.5-8c-1.2-1.2-8.8-0.2-11.5,1.5c-1,0.6-1,0.7-1,11.6
	C519,259.7,518.9,259.4,522.5,256.1L522.5,256.1z M541.4,245.8c2-0.6,3.9-1.3,4.1-1.5c1.4-1.4-7.4-9.7-9.5-8.9
	c-0.5,0.2-0.6,1.3-0.6,5.8c0,3.1,0.1,5.7,0.3,5.9C536.1,247.4,536.4,247.3,541.4,245.8z M522.2,231.5c1.2-0.4,3.8-0.8,5.8-1l3.7-0.3
	l0.1-27c0.1-24.6,0-27-0.6-27.8c-0.4-0.4-1.1-0.8-1.5-0.8c-1.5,0-8.9,3.7-9.8,5l-0.9,1.2v25.4c0,14,0.1,25.5,0.3,25.7
	C519.6,232.2,519.7,232.2,522.2,231.5L522.2,231.5z"/>
<g>
	<path d="M263.7,378.2c-4.4-3.3-8.1-6.1-8.1-6.2c0-0.4,4.3-4.4,10.2-9.5c3-2.6,5.5-4.8,5.5-5c0-0.7-4.4-4.3-6.8-5.5
		c-7.7-3.9-16-3-23.5,2.4c-2.5,1.8-5.1,5.7-6.2,9.4c-1.3,4.2-1.3,10.9,0,15c2,6.5,6.5,10.7,13.3,12.3h0c5.6,1.4,13.2,0.4,18.3-2.3
		c2.9-1.5,5.4-3.6,5.4-4.3C271.8,384.4,268.2,381.5,263.7,378.2z"/>
	<path d="M450.1,370.7L440,366l-14-14v-52.4h-5.1v-17v-17h-67.4H286l-17.2-13.4c-9.4-7.4-18.9-14.7-21-16.4
		c-2.1-1.6-4.5-3.3-5.4-3.6s-3.1-1.2-5-1.9c-9.5-3.6-19.9-3.2-29.5,0.9c-8.7,3.8-16.7,11.9-20.3,20.5c-2.5,5.9-3,8.8-3,15.7
		c0,6.9,0.6,9.7,3.1,15.7c1.1,2.6,1.8,3.7,4,5.7c16.9,16,12.7,42.3-8.2,52.2c-1.7,0.8-4.3,1.8-5.9,2.2l-2.8,0.7l0.3,1.9
		c0.1,1,0.3,2.3,0.3,2.8v1h14.7h14.7l1.7-3.5c15.5-32.3,56.8-41,84.5-17.7c11.2,9.4,18.7,25.5,18.7,39.9l0,2.8l50.6,0.1v0
		 M380.3,363.6L380.3,363.6l-1.4,0.9l-24.1,0c-26.1,0-26.1,0-28.5-2.3c-1.9-1.8-2.4-3.1-3-7.9c-0.8-5.8-1.6-9.4-3.2-14.2
		c-6.5-20-22.9-36.4-42.2-42.6c-8.6-2.7-17.1-3.8-24.1-3c-15.1,1.6-27.2,6.9-38.2,16.6c-5.5,4.9-7.7,5.5-10.2,2.9
		c-2.2-2.3-1.4-4.4,3.4-8.8c3.4-3.2,8.8-6.9,13.6-9.5c16-8.6,35.1-10.8,53.1-6.1c28.2,7.3,50,31.9,53.8,60.6
		c0.5,3.8,0.5,3.9,2.5,5.8l2,2h22.5h22.5l1.4,0.9c1.1,0.8,1.4,1.2,1.4,2.4C381.7,362.4,381.5,362.9,380.3,363.6z"/>
	<path d="M290.6,335.8c-7.3-7.2-16.1-11.9-26.5-13.9c-3.8-0.7-14-0.7-17.8,0c-4.3,0.8-10,2.7-13.5,4.5c-12,6.1-21.4,16.8-25.4,29
		c-10,30.3,9.2,61.3,41,66.3h0c3.5,0.5,13.1,0.2,16.8-0.6c10-2.2,18.5-6.7,25.5-13.7c7.4-7.4,11.8-15.4,14.1-25.9
		c1-4.3,1-15.6,0-19.9C302.4,351.2,298,343.2,290.6,335.8z M261.8,403.7L261.8,403.7c-3.8,0.8-9.5,0.8-13.2,0
		c-15.2-3.2-26.1-16.7-26.1-32.1c0-18,14.7-32.7,32.7-32.7s32.7,14.7,32.7,32.7C287.9,387.1,276.9,400.6,261.8,403.7z"/>
</g>
</svg>
