<?xml version="1.0" encoding="utf-8"?>
<!-- Generator: Adobe Illustrator 16.0.0, SVG Export Plug-In . SVG Version: 6.00 Build 0)  -->
<!DOCTYPE svg PUBLIC "-//W3C//DTD SVG 1.1//EN" "http://www.w3.org/Graphics/SVG/1.1/DTD/svg11.dtd">
<svg version="1.1" id="Calque_1" xmlns="http://www.w3.org/2000/svg" xmlns:xlink="http://www.w3.org/1999/xlink" x="0px" y="0px"
	 width="90.465px" height="75.407px" viewBox="0 0 90.465 75.407" enable-background="new 0 0 90.465 75.407" xml:space="preserve">
<path fill="#E9E6D3" d="M11.137,44.902c1.34-0.182,2.636-0.383,3.939-0.529c1.834-0.207,2.713,0.428,3.099,2.215
	c1.72,7.971,3.436,15.939,5.149,23.912c0.36,1.676-0.044,2.43-1.624,3.09c-6.989,2.918-14.909,0.447-18.963-5.914
	c-4.208-6.604-2.574-15.539,3.738-20.234c0.566-0.422,0.688-0.805,0.584-1.463c-1.981-12.391,1.249-23.288,9.615-32.595
	C22.74,6.634,30.38,2.578,39.313,1.112c10.415-1.709,19.918,0.811,28.434,6.889c8.831,6.304,14.074,14.947,15.848,25.646
	c0.689,4.157,0.596,8.339-0.182,12.488c-0.11,0.582,0.041,0.881,0.484,1.219c4.613,3.518,6.602,8.227,6.081,13.951
	c-0.604,6.658-6.369,12.494-13.025,13.365c-2.885,0.377-5.657,0.043-8.324-1.141c-1.392-0.619-1.803-1.41-1.482-2.898
	c1.73-8.047,3.461-16.092,5.189-24.139c0.346-1.611,1.19-2.264,2.86-2.156c0.693,0.045,1.388,0.121,2.075,0.227
	c0.683,0.104,1.357,0.264,2.035,0.396c1.967-10.428-1.547-24.013-13.002-32.814c-11.818-9.08-26.82-9.692-39.03-2.141
	C14.268,18.047,8.954,32.249,11.137,44.902 M71.567,70.109c3.624,1.209,7.94,0.309,10.994-2.701
	c3.186-3.141,4.207-7.902,2.534-11.926c-1.64-3.941-4.65-6.154-8.89-6.865C74.652,55.82,73.114,62.947,71.567,70.109 M14.288,48.688
	c-4.168,0.346-7.906,3.471-9.198,7.639c-1.314,4.236,0.134,9.031,3.621,11.785c3.03,2.393,6.418,3.088,10.211,2.043
	C17.361,62.928,15.824,55.805,14.288,48.688"/>
</svg>
