<?xml version="1.0" encoding="utf-8"?>
<!-- Generator: Adobe Illustrator 16.0.0, SVG Export Plug-In . SVG Version: 6.00 Build 0)  -->
<!DOCTYPE svg PUBLIC "-//W3C//DTD SVG 1.1//EN" "http://www.w3.org/Graphics/SVG/1.1/DTD/svg11.dtd">
<svg version="1.1" id="Calque_1" xmlns="http://www.w3.org/2000/svg" xmlns:xlink="http://www.w3.org/1999/xlink" x="0px" y="0px"
	 width="100px" height="100px" viewBox="0 0 100 100" enable-background="new 0 0 100 100" xml:space="preserve">
<path fill="#323E4F" d="M59.004,36.198h1.275c4.418,0,8.836-0.003,13.256,0c1.699,0,2.395,0.653,2.402,2.354
	c0.018,5.134,0.018,10.271,0,15.404c-0.008,1.678-0.779,2.396-2.496,2.396c-4.418,0.01-8.84,0.004-13.26,0.004h-1.205v1.299v38.223
	c0,0.357,0.01,0.717-0.014,1.072c-0.094,1.328-0.848,2.105-2.193,2.113c-5.428,0.02-10.853,0.02-16.281,0
	c-1.423-0.008-2.199-0.9-2.199-2.4V57.857v-1.5h-1.101c-3.706,0-7.413,0.004-11.115,0c-1.88-0.004-2.6-0.709-2.603-2.594
	c-0.007-5.002-0.007-10.008,0-15.014c0.003-1.901,0.681-2.551,2.603-2.551c3.643-0.003,7.281,0,10.921,0h1.295
	c0-0.477-0.003-0.854,0-1.228c0.033-4.031-0.067-8.065,0.121-12.09c0.297-6.406,2.507-12.041,7.371-16.432
	c3.365-3.036,7.396-4.864,11.849-5.179c5.566-0.394,11.168-0.294,16.746-0.349c1.383-0.014,2.117,0.747,2.131,2.13
	c0.037,4.906,0.033,9.815,0,14.721c-0.008,1.393-0.83,2.133-2.234,2.14c-2.633,0.018-5.266-0.024-7.896,0.018
	c-1.164,0.021-2.34,0.11-3.484,0.301c-2.02,0.325-3.242,1.556-3.643,3.55c-0.16,0.792-0.229,1.611-0.236,2.42
	C58.986,29.478,59.004,32.755,59.004,36.198"/>
</svg>
