<?xml version="1.0" encoding="utf-8"?>
<!-- Generator: Adobe Illustrator 16.0.0, SVG Export Plug-In . SVG Version: 6.00 Build 0)  -->
<!DOCTYPE svg PUBLIC "-//W3C//DTD SVG 1.1//EN" "http://www.w3.org/Graphics/SVG/1.1/DTD/svg11.dtd">
<svg version="1.1" id="Calque_1" xmlns="http://www.w3.org/2000/svg" xmlns:xlink="http://www.w3.org/1999/xlink" x="0px" y="0px"
	 width="100px" height="100px" viewBox="0 0 100 100" enable-background="new 0 0 100 100" xml:space="preserve">
<path fill="#323E4F" d="M90.975,18.849h-1.32c-7.271,0-14.545,0.002-21.816-0.003c-0.587,0-1.18-0.016-1.762-0.081
	c-2.068-0.231-3.363-1.704-3.356-3.787c0.006-1.968,1.453-3.554,3.441-3.757c0.379-0.038,0.762-0.025,1.142-0.025
	c8.936,0,17.869-0.001,26.803,0c2.993,0.001,4.502,1.456,4.513,4.44c0.023,5.817-0.021,11.635,0.018,17.453
	c0.023,3.779-3.209,4.87-5.215,4.064c-1.54-0.618-2.436-2.012-2.441-3.975c-0.013-4.363-0.004-8.726-0.005-13.09V18.849z"/>
<path fill="#323E4F" d="M9.024,18.849v1.396c0,4.293,0.023,8.587-0.01,12.88c-0.025,3.12-2.472,5.035-5.123,4.04
	c-1.596-0.599-2.473-1.835-2.487-3.499C1.358,27.4,1.35,21.132,1.409,14.865c0.019-2.078,1.688-3.637,3.789-3.644
	c9.418-0.028,18.836-0.033,28.253-0.011c2.162,0.003,3.761,1.615,3.851,3.707c0.088,2.024-1.37,3.631-3.529,3.868
	c-0.516,0.057-1.038,0.063-1.555,0.063c-7.272,0.003-14.545,0.001-21.815,0.001H9.024z"/>
<path fill="#323E4F" d="M90.975,81.433v-4.711c0.001-3.36-0.022-6.721,0.016-10.08c0.019-1.726,0.877-2.994,2.488-3.617
	c1.493-0.575,2.858-0.213,4.017,0.896c0.866,0.829,1.117,1.903,1.12,3.033c0.018,5.959,0.036,11.917-0.003,17.876
	c-0.018,2.664-1.59,4.149-4.258,4.152c-9.18,0.009-18.359,0.01-27.539-0.001c-2.368-0.003-3.995-1.437-4.087-3.535
	c-0.101-2.309,1.452-3.995,3.781-4.002c7.689-0.021,15.381-0.009,23.07-0.011H90.975z"/>
<path fill="#323E4F" d="M9.024,81.433h1.332c7.72,0.002,15.444,0.003,23.167,0.003c1.586,0,2.716,0.757,3.388,2.146
	c0.703,1.447,0.484,2.835-0.539,4.072c-0.754,0.918-1.783,1.316-2.935,1.318c-9.384,0.016-18.769,0.023-28.154,0
	c-2.232-0.007-3.858-1.536-3.879-3.771c-0.058-6.232-0.05-12.467-0.001-18.699c0.018-2.077,1.648-3.647,3.616-3.712
	c2.097-0.067,3.655,1.303,3.924,3.471c0.054,0.446,0.077,0.896,0.077,1.345c0.006,4.156,0.003,8.312,0.003,12.469V81.433z"/>
</svg>
