<?xml version="1.0" encoding="utf-8"?>
<!-- Generator: Adobe Illustrator 16.0.0, SVG Export Plug-In . SVG Version: 6.00 Build 0)  -->
<!DOCTYPE svg PUBLIC "-//W3C//DTD SVG 1.1//EN" "http://www.w3.org/Graphics/SVG/1.1/DTD/svg11.dtd">
<svg version="1.1" id="Calque_1" xmlns="http://www.w3.org/2000/svg" xmlns:xlink="http://www.w3.org/1999/xlink" x="0px" y="0px"
	 width="100px" height="100px" viewBox="0 0 100 100" enable-background="new 0 0 100 100" xml:space="preserve">
<path fill="#323E4F" d="M96.553,1053.654c-3.65,0-7.304,0.002-10.955,0c-3.273-0.002-5.925-2.279-6.421-5.518
	c-0.049-0.322-0.063-0.651-0.065-0.978c-0.004-3.872-0.004-7.745-0.002-11.618c0.004-3.27,2.244-5.905,5.475-6.432
	c0.32-0.053,0.65-0.071,0.977-0.071c7.323-0.004,14.645-0.006,21.969-0.002c3.608,0.002,6.455,2.854,6.457,6.469
	c0.004,3.9,0.004,7.802,0,11.704c-0.004,3.594-2.854,6.441-6.449,6.444C103.876,1053.657,100.215,1053.654,96.553,1053.654
	 M96.55,1052.108c3.651,0,7.304,0.003,10.956-0.001c2.798-0.002,4.932-2.133,4.934-4.925c0.004-3.893,0.004-7.784,0-11.677
	c-0.002-2.79-2.142-4.922-4.937-4.923c-7.304-0.002-14.606-0.001-21.911,0c-0.211,0-0.425,0-0.633,0.029
	c-2.577,0.368-4.303,2.357-4.305,4.954c0,3.845,0,7.688,0,11.532c0,2.893,2.111,5.009,4.998,5.01
	C89.285,1052.109,92.918,1052.108,96.55,1052.108"/>
<path fill="#323E4F" d="M92.95,1041.344c0-1.086-0.011-2.171,0.008-3.256c0.005-0.25,0.054-0.529,0.177-0.739
	c0.289-0.496,0.852-0.61,1.414-0.324c1.238,0.631,2.475,1.271,3.711,1.909c0.938,0.484,1.877,0.968,2.812,1.456
	c0.523,0.273,0.72,0.658,0.624,1.169c-0.069,0.365-0.308,0.582-0.621,0.743c-0.801,0.415-1.601,0.835-2.401,1.247
	c-1.35,0.691-2.697,1.388-4.055,2.063c-0.23,0.114-0.514,0.197-0.766,0.182c-0.572-0.034-0.898-0.482-0.901-1.165
	C92.946,1043.534,92.95,1042.438,92.95,1041.344"/>
<path fill="#323E4F" d="M98.459,21.002c-1.041,2.247-2.016,4.369-2.998,6.491c-7.93,17.155-15.859,34.311-23.781,51.47
	c-0.221,0.471-0.408,0.777-1.047,0.777c-22.851-0.023-45.698-0.02-68.548-0.02H1.541c0.128-0.307,0.212-0.544,0.318-0.771
	c8.829-19.109,17.665-38.218,26.483-57.334c0.224-0.491,0.479-0.666,1.033-0.666c22.768,0.017,45.534,0.013,68.307,0.013
	C97.893,20.962,98.111,20.982,98.459,21.002"/>
</svg>
