<?xml version="1.0" encoding="utf-8"?>
<!-- Generator: Adobe Illustrator 16.0.0, SVG Export Plug-In . SVG Version: 6.00 Build 0)  -->
<!DOCTYPE svg PUBLIC "-//W3C//DTD SVG 1.1//EN" "http://www.w3.org/Graphics/SVG/1.1/DTD/svg11.dtd">
<svg version="1.1" id="Calque_1" xmlns="http://www.w3.org/2000/svg" xmlns:xlink="http://www.w3.org/1999/xlink" x="0px" y="0px"
	 width="100px" height="100px" viewBox="0 0 100 100" enable-background="new 0 0 100 100" xml:space="preserve">
<path fill="#323E4F" d="M96.553,1053.654c-3.65,0-7.304,0.002-10.955,0c-3.273-0.002-5.925-2.279-6.421-5.518
	c-0.049-0.322-0.063-0.651-0.065-0.978c-0.004-3.872-0.004-7.745-0.002-11.618c0.004-3.27,2.244-5.905,5.475-6.432
	c0.32-0.053,0.65-0.071,0.977-0.071c7.323-0.004,14.645-0.006,21.969-0.002c3.608,0.002,6.455,2.854,6.457,6.469
	c0.004,3.9,0.004,7.802,0,11.704c-0.004,3.594-2.854,6.441-6.449,6.444C103.876,1053.657,100.215,1053.654,96.553,1053.654
	 M96.55,1052.108c3.651,0,7.304,0.003,10.956-0.001c2.798-0.002,4.932-2.133,4.934-4.925c0.004-3.893,0.004-7.784,0-11.677
	c-0.002-2.79-2.142-4.922-4.937-4.923c-7.304-0.002-14.606-0.001-21.911,0c-0.211,0-0.425,0-0.633,0.029
	c-2.577,0.368-4.303,2.357-4.305,4.954c0,3.845,0,7.688,0,11.532c0,2.893,2.111,5.009,4.998,5.01
	C89.285,1052.109,92.918,1052.108,96.55,1052.108"/>
<path fill="#323E4F" d="M92.95,1041.344c0-1.086-0.011-2.171,0.008-3.256c0.005-0.25,0.054-0.529,0.177-0.739
	c0.289-0.496,0.852-0.61,1.414-0.324c1.238,0.631,2.475,1.271,3.711,1.909c0.938,0.484,1.877,0.968,2.812,1.456
	c0.523,0.273,0.72,0.658,0.624,1.169c-0.069,0.365-0.308,0.582-0.621,0.743c-0.801,0.415-1.601,0.835-2.401,1.247
	c-1.35,0.691-2.697,1.388-4.055,2.063c-0.23,0.114-0.514,0.197-0.766,0.182c-0.572-0.034-0.898-0.482-0.901-1.165
	C92.946,1043.534,92.95,1042.438,92.95,1041.344"/>
<path fill="#323E4F" d="M50.011,84.609c-10.163,0-20.331,0.006-30.495,0c-9.111-0.006-16.493-6.345-17.874-15.358
	c-0.136-0.897-0.178-1.813-0.181-2.722c-0.011-10.778-0.014-21.56-0.005-32.34c0.008-9.102,6.247-16.438,15.238-17.903
	c0.893-0.147,1.812-0.199,2.718-0.199c20.385-0.011,40.765-0.016,61.153-0.005c10.044,0.005,17.968,7.946,17.974,18.007
	c0.011,10.857,0.011,21.717,0,32.58c-0.011,10.004-7.946,17.931-17.952,17.938C70.396,84.617,60.205,84.609,50.011,84.609
	 M50.003,80.307c10.164,0,20.331,0.008,30.498-0.003c7.788-0.006,13.728-5.938,13.733-13.709c0.011-10.836,0.011-21.668,0-32.504
	c-0.006-7.766-5.962-13.701-13.742-13.703c-20.33-0.005-40.66-0.003-60.992,0c-0.587,0-1.183,0-1.762,0.082
	c-7.174,1.025-11.979,6.562-11.981,13.79c-0.002,10.703-0.002,21.402,0,32.102c0,8.052,5.876,13.942,13.913,13.945
	C29.78,80.309,39.894,80.307,50.003,80.307"/>
<path fill="#323E4F" d="M39.983,50.341c0-3.023-0.031-6.043,0.021-9.063c0.015-0.696,0.151-1.473,0.494-2.058
	c0.805-1.381,2.369-1.699,3.934-0.903c3.448,1.756,6.889,3.54,10.331,5.314c2.612,1.349,5.226,2.694,7.829,4.053
	c1.457,0.761,2.004,1.832,1.737,3.254c-0.193,1.017-0.856,1.62-1.729,2.068c-2.229,1.155-4.456,2.324-6.685,3.472
	c-3.757,1.925-7.51,3.863-11.287,5.744c-0.643,0.318-1.431,0.549-2.132,0.506c-1.592-0.096-2.5-1.344-2.508-3.243
	C39.972,56.438,39.983,53.389,39.983,50.341"/>
</svg>
