<?xml version="1.0" encoding="utf-8"?>
<!-- Generator: Adobe Illustrator 16.0.0, SVG Export Plug-In . SVG Version: 6.00 Build 0)  -->
<!DOCTYPE svg PUBLIC "-//W3C//DTD SVG 1.1//EN" "http://www.w3.org/Graphics/SVG/1.1/DTD/svg11.dtd">
<svg version="1.1" id="Calque_1" xmlns="http://www.w3.org/2000/svg" xmlns:xlink="http://www.w3.org/1999/xlink" x="0px" y="0px"
	 width="100px" height="100px" viewBox="0 0 100 100" enable-background="new 0 0 100 100" xml:space="preserve">
<path fill="#323E4F" d="M96.553,1053.654c-3.65,0-7.304,0.002-10.955,0c-3.273-0.002-5.925-2.279-6.421-5.518
	c-0.049-0.322-0.063-0.651-0.065-0.978c-0.004-3.872-0.004-7.745-0.002-11.618c0.004-3.27,2.244-5.905,5.475-6.432
	c0.32-0.053,0.65-0.071,0.977-0.071c7.323-0.004,14.645-0.006,21.969-0.002c3.608,0.002,6.455,2.854,6.457,6.469
	c0.004,3.9,0.004,7.802,0,11.704c-0.004,3.594-2.854,6.441-6.449,6.444C103.876,1053.657,100.215,1053.654,96.553,1053.654
	 M96.55,1052.108c3.651,0,7.304,0.003,10.956-0.001c2.798-0.002,4.932-2.133,4.934-4.925c0.004-3.893,0.004-7.784,0-11.677
	c-0.002-2.79-2.142-4.922-4.937-4.923c-7.304-0.002-14.606-0.001-21.911,0c-0.211,0-0.425,0-0.633,0.029
	c-2.577,0.368-4.303,2.357-4.305,4.954c0,3.845,0,7.688,0,11.532c0,2.893,2.111,5.009,4.998,5.01
	C89.285,1052.109,92.918,1052.108,96.55,1052.108"/>
<path fill="#323E4F" d="M92.95,1041.344c0-1.086-0.011-2.171,0.008-3.256c0.005-0.25,0.054-0.529,0.177-0.739
	c0.289-0.496,0.852-0.61,1.414-0.324c1.238,0.631,2.475,1.271,3.711,1.909c0.938,0.484,1.877,0.968,2.812,1.456
	c0.523,0.273,0.72,0.658,0.624,1.169c-0.069,0.365-0.308,0.582-0.621,0.743c-0.801,0.415-1.601,0.835-2.401,1.247
	c-1.35,0.691-2.697,1.388-4.055,2.063c-0.23,0.114-0.514,0.197-0.766,0.182c-0.572-0.034-0.898-0.482-0.901-1.165
	C92.946,1043.534,92.95,1042.438,92.95,1041.344"/>
<path fill="#323E4F" d="M82.83,48.854c1.061,0,2.019,0.037,2.976-0.005c6.76-0.294,12.092,4.951,12.942,11.194
	c0.924,6.796-3.845,13.605-10.586,14.506c-0.753,0.102-1.519,0.154-2.28,0.154c-11.605,0.011-23.209,0.008-34.815,0.008
	c-0.972,0-0.975-0.002-0.975-0.979c0-13.186,0.021-26.372-0.033-39.557c-0.005-1.244,0.393-2.112,1.247-2.895
	c2.435-2.238,5.169-3.996,8.407-4.755c5.67-1.328,10.905-0.32,15.592,3.212c3.938,2.965,6.303,6.933,7.337,11.708
	c0.451,2.081,0.538,4.198,0.241,6.319C82.838,48.08,82.852,48.403,82.83,48.854"/>
<path fill="#323E4F" d="M37.797,35.841c1.075,0.286,2.056,0.491,2.994,0.813c0.787,0.271,1.526,0.693,2.293,1.021
	c0.495,0.21,0.669,0.535,0.667,1.083c-0.016,11.706-0.016,23.409,0.002,35.115c0,0.643-0.177,0.871-0.834,0.851
	c-1.433-0.045-2.865-0.042-4.294,0c-0.661,0.021-0.841-0.202-0.838-0.851c0.019-7.631,0.011-15.262,0.011-22.889V36.833V35.841z"/>
<path fill="#323E4F" d="M31.449,36.445v0.892v36.366c0,1.006-0.002,1.006-1.021,1.008c-1.333,0-2.666-0.023-3.999,0.011
	c-0.59,0.013-0.824-0.155-0.824-0.79c0.016-11.21,0.011-22.417,0.021-33.624c0.003-0.273,0.067-0.64,0.25-0.8
	C27.467,38.104,29.306,37.146,31.449,36.445"/>
<path fill="#323E4F" d="M13.341,61.704c0-3.997,0.016-7.993-0.016-11.989c-0.005-0.696,0.218-0.893,0.887-0.874
	c1.453,0.044,2.91,0.032,4.367,0.005c0.547-0.011,0.722,0.184,0.722,0.729c-0.016,8.139-0.016,16.28,0,24.419
	c0,0.556-0.193,0.731-0.731,0.724c-1.478-0.026-2.961-0.031-4.438,0.003c-0.615,0.013-0.806-0.197-0.803-0.809
	C13.352,69.844,13.341,65.773,13.341,61.704"/>
<path fill="#323E4F" d="M6.972,50.838v21.818c-3.428-2.254-5.336-5.402-5.745-9.336C0.693,58.156,2.585,53.989,6.972,50.838"/>
</svg>
